<?xml version="1.0" encoding="utf-8"?>
<!-- Generator: Adobe Illustrator 17.0.0, SVG Export Plug-In . SVG Version: 6.00 Build 0)  -->
<!DOCTYPE svg PUBLIC "-//W3C//DTD SVG 1.1//EN" "http://www.w3.org/Graphics/SVG/1.1/DTD/svg11.dtd">
<svg version="1.1" id="Layer_1" xmlns="http://www.w3.org/2000/svg" xmlns:xlink="http://www.w3.org/1999/xlink" x="0px" y="0px"
	 width="780.008px" height="780.008px" viewBox="0 0 780.008 780.008" enable-background="new 0 0 780.008 780.008"
	 xml:space="preserve">
<g>
	<circle cx="390.004" cy="390.004" r="390.004"/>
	<circle fill="#7093C9" cx="390.004" cy="390.004" r="338.25"/>
	<circle cx="390.004" cy="390.004" r="325"/>
	<circle fill="#7093C9" cx="390.004" cy="390.004" r="248"/>
	<circle cx="313.757" cy="351.734" r="79.003"/>
	<path fill="#FFFFFF" d="M600.01,258.058c-20.8,35.598-90.759,155.297-100.37,171.316c-11.31,18.85-30.788,27.333-56.865,27.333
		l-215.52-0.314l-9.425,67.232h252.906c10.996,0,10.367-5.027,13.509-9.739c2.701-4.052,105.026-174.143,133.675-221.774
		C612.82,280.254,606.82,268.876,600.01,258.058z"/>
	<g>
		<path fill="#FFFFFF" d="M108.385,350.072l20.938,3.643l-1.697,9.754l-46.687-8.123l1.697-9.753l17.687,3.077l3.167-18.207
			l-17.687-3.077l1.697-9.753l46.687,8.122l-1.697,9.753l-20.938-3.642L108.385,350.072z"/>
		<path fill="#FFFFFF" d="M112.032,315.944c-3.485-1.231-6.354-2.688-8.605-4.371c-2.252-1.682-4.026-3.463-5.321-5.345
			c-1.296-1.881-2.194-3.796-2.695-5.747c-0.501-1.95-0.759-3.826-0.775-5.629c-0.017-1.802,0.135-3.452,0.453-4.949
			c0.319-1.498,0.654-2.744,1.007-3.74c0.352-0.995,0.874-2.176,1.566-3.541s1.611-2.743,2.756-4.136
			c1.146-1.392,2.524-2.689,4.14-3.893c1.615-1.202,3.518-2.128,5.707-2.778c2.189-0.649,4.689-0.921,7.498-0.816
			c2.81,0.107,5.956,0.774,9.441,2.006c3.484,1.231,6.354,2.689,8.605,4.371c2.252,1.683,4.025,3.464,5.321,5.345
			c1.295,1.882,2.193,3.797,2.694,5.747s0.76,3.827,0.776,5.629c0.016,1.803-0.135,3.452-0.454,4.949s-0.654,2.744-1.006,3.739
			c-0.352,0.996-0.874,2.177-1.566,3.542s-1.611,2.744-2.756,4.136c-1.146,1.393-2.525,2.689-4.141,3.893s-3.518,2.129-5.706,2.778
			c-2.19,0.65-4.689,0.923-7.498,0.815C118.664,317.845,115.516,317.175,112.032,315.944z M115.33,306.609
			c3.111,1.1,5.823,1.614,8.134,1.544c2.312-0.069,4.262-0.501,5.848-1.294c1.587-0.792,2.861-1.824,3.823-3.095
			c0.963-1.27,1.663-2.527,2.103-3.771c0.439-1.245,0.685-2.663,0.733-4.256c0.05-1.593-0.294-3.194-1.03-4.809
			c-0.736-1.613-1.982-3.174-3.737-4.681c-1.754-1.505-4.187-2.81-7.298-3.908c-3.112-1.1-5.823-1.613-8.135-1.544
			c-2.311,0.07-4.26,0.502-5.847,1.294c-1.587,0.794-2.86,1.824-3.823,3.094c-0.962,1.271-1.663,2.527-2.103,3.772
			c-0.44,1.244-0.685,2.663-0.734,4.256c-0.048,1.593,0.295,3.195,1.031,4.809c0.736,1.614,1.982,3.175,3.736,4.68
			C109.786,304.208,112.219,305.51,115.33,306.609z"/>
		<path fill="#FFFFFF" d="M137.549,237.121c-0.722-0.148-1.576-0.309-2.564-0.479c-0.986-0.17-2.033-0.121-3.138,0.146
			c-1.104,0.269-2.227,0.815-3.364,1.643c-1.14,0.828-2.199,2.127-3.182,3.896c-0.576,1.038-0.994,2.267-1.251,3.684
			c-0.258,1.417-0.136,2.943,0.364,4.58c0.501,1.637,1.507,3.315,3.019,5.033c1.512,1.721,3.729,3.392,6.653,5.014
			c1.847,1.024,3.733,1.82,5.658,2.385c1.926,0.566,3.772,0.799,5.539,0.696c1.767-0.101,3.393-0.582,4.878-1.444
			c1.484-0.861,2.739-2.217,3.764-4.063c1.346-2.424,1.791-4.792,1.34-7.106c-0.452-2.313-1.799-4.444-4.038-6.393l4.804-8.656
			c2.035,1.684,3.719,3.523,5.051,5.521c1.332,1.998,2.255,4.12,2.769,6.367c0.515,2.248,0.58,4.6,0.199,7.055
			c-0.382,2.456-1.287,4.973-2.718,7.55c-1.537,2.77-3.408,5.053-5.612,6.849s-4.685,3.024-7.44,3.684s-5.753,0.708-8.988,0.146
			s-6.642-1.837-10.22-3.822c-3.616-2.007-6.518-4.259-8.705-6.756s-3.72-5.108-4.597-7.835c-0.878-2.726-1.133-5.509-0.764-8.35
			c0.368-2.839,1.289-5.587,2.762-8.241c1.729-3.116,3.685-5.504,5.862-7.164c2.18-1.658,4.39-2.81,6.634-3.451
			c2.243-0.643,4.418-0.844,6.525-0.606c2.106,0.239,3.962,0.728,5.564,1.466L137.549,237.121z"/>
		<path fill="#FFFFFF" d="M178.013,234.104l-6.116,7.785l-37.265-29.273l6.116-7.785l15.154,11.905l-3.983-26.126l7.909-10.069
			l3.313,27.194l34.645,1.197l-7.868,10.018l-25.4-1.321l0.883,6.568L178.013,234.104z"/>
		<path fill="#FFFFFF" d="M196.553,157.398l-18.348,17.195l6.814,7.271l16.855-15.796l5.731,6.116l-16.855,15.796l8.395,8.957
			l19.167-17.962l5.731,6.115l-26.245,24.598l-32.405-34.577l25.428-23.83L196.553,157.398z"/>
		<path fill="#FFFFFF" d="M244.391,170.896l-8.129,5.65l-10.208-14.688l-30.278-14.884l9.593-6.667l19.827,11.297l-4.056-22.258
			l9.213-6.403l3.905,33.374L244.391,170.896z"/>
		<path fill="#FFFFFF" d="M278.088,100.242l8.505-3.61l18.519,43.619l-9.112,3.869l-31.006-23.548l-0.121,0.052l13.205,31.104
			l-8.506,3.611l-18.518-43.62l9.599-4.075l30.21,23.025l0.121-0.052L278.088,100.242z"/>
		<path fill="#FFFFFF" d="M318.248,136.863l-9.474,2.875l-13.763-45.346l9.474-2.875L318.248,136.863z"/>
		<path fill="#FFFFFF" d="M339.295,105.903l19.476-3.565l4.601,25.124l-6.492,1.188l-2.044-5.664
			c-0.472,0.847-1.032,1.755-1.682,2.723c-0.651,0.97-1.475,1.903-2.474,2.802s-2.233,1.728-3.704,2.489s-3.268,1.337-5.388,1.725
			c-2.813,0.516-5.601,0.499-8.361-0.046c-2.762-0.545-5.322-1.643-7.682-3.29c-2.359-1.648-4.402-3.891-6.13-6.729
			c-1.727-2.837-2.967-6.312-3.72-10.424c-0.578-3.158-0.695-6.302-0.351-9.43c0.344-3.126,1.236-6.007,2.678-8.643
			c1.44-2.634,3.464-4.905,6.066-6.813s5.852-3.219,9.747-3.932l0.13-0.024c3.549-0.649,6.685-0.687,9.407-0.111
			c2.722,0.575,5.047,1.491,6.978,2.748c1.93,1.257,3.463,2.732,4.602,4.425c1.137,1.693,1.917,3.329,2.34,4.905l-9.737,1.783
			c-0.079-0.432-0.404-1.044-0.974-1.835c-0.57-0.79-1.354-1.53-2.353-2.22c-0.998-0.689-2.194-1.23-3.585-1.625
			c-1.392-0.393-2.954-0.432-4.685-0.115c-1.731,0.317-3.351,0.938-4.858,1.863c-1.509,0.925-2.757,2.171-3.744,3.738
			c-0.988,1.567-1.656,3.479-2.003,5.734c-0.349,2.256-0.248,4.876,0.299,7.862c0.586,3.204,1.467,5.76,2.645,7.668
			c1.177,1.91,2.515,3.354,4.014,4.331c1.498,0.979,3.104,1.558,4.813,1.735c1.71,0.18,3.387,0.118,5.032-0.183
			c0.52-0.096,1.291-0.337,2.316-0.727c1.024-0.389,2.047-1.034,3.067-1.937c1.02-0.901,1.925-2.131,2.714-3.685
			c0.789-1.553,1.229-3.546,1.32-5.979l-10.842,1.985L339.295,105.903z"/>
		<path fill="#FFFFFF" d="M376.279,105.937l0.345,21.249l-9.898,0.16l-0.769-47.382l9.898-0.16l0.291,17.949l18.478-0.3
			l-0.291-17.949l9.899-0.16L405,126.726l-9.898,0.16l-0.345-21.249L376.279,105.937z"/>
		<path fill="#FFFFFF" d="M429.086,129.84l-9.818-1.272l5.014-38.683l-14.203-1.841l1.078-8.313l38.224,4.954l-1.077,8.313
			l-14.203-1.841L429.086,129.84z"/>
		<path fill="#FFFFFF" d="M466.328,138.2l-9.527-2.688l12.867-45.607l9.527,2.688L466.328,138.2z"/>
		<path fill="#FFFFFF" d="M514.955,105.625l8.575,3.442l-17.654,43.977l-9.187-3.688l-5.357-38.564l-0.123-0.049l-12.588,31.359
			l-8.576-3.442l17.654-43.977l9.678,3.885l5.162,37.632l0.123,0.05L514.955,105.625z"/>
		<path fill="#FFFFFF" d="M564.424,151.947c0.211-0.706,0.445-1.543,0.703-2.513c0.256-0.968,0.299-2.015,0.129-3.139
			c-0.17-1.123-0.616-2.289-1.34-3.495c-0.726-1.207-1.926-2.378-3.603-3.511c-0.984-0.665-2.171-1.188-3.56-1.569
			c-1.389-0.382-2.92-0.394-4.594-0.039c-1.676,0.355-3.436,1.211-5.279,2.565c-1.847,1.355-3.705,3.418-5.578,6.188
			c-1.183,1.749-2.141,3.559-2.872,5.427c-0.733,1.869-1.126,3.688-1.179,5.457c-0.055,1.77,0.281,3.431,1.011,4.985
			c0.728,1.555,1.968,2.923,3.718,4.106c2.296,1.552,4.616,2.204,6.961,1.957s4.585-1.401,6.723-3.462l8.201,5.544
			c-1.855,1.88-3.836,3.396-5.941,4.548c-2.107,1.152-4.303,1.886-6.586,2.2c-2.285,0.315-4.633,0.174-7.045-0.421
			c-2.413-0.596-4.84-1.719-7.282-3.369c-2.624-1.774-4.735-3.838-6.331-6.191s-2.601-4.932-3.016-7.735
			c-0.416-2.803-0.201-5.792,0.643-8.966s2.412-6.455,4.705-9.845c2.315-3.427,4.813-6.119,7.492-8.08
			c2.68-1.959,5.414-3.257,8.208-3.892c2.792-0.635,5.587-0.646,8.384-0.028c2.797,0.615,5.453,1.773,7.969,3.474
			c2.952,1.996,5.158,4.153,6.621,6.468c1.461,2.316,2.414,4.62,2.857,6.911c0.442,2.291,0.451,4.476,0.031,6.553
			c-0.424,2.078-1.072,3.884-1.948,5.415L564.424,151.947z"/>
		<path fill="#FFFFFF" d="M561.055,189.858l-7.607-7.133l44.74-23.011l8.328,7.811l-20.234,45.989l-7.848-7.358l4.467-9.202
			l-12.758-11.964L561.055,189.858z M577.666,180.826l8.811,8.262l8.537-17.691l-0.096-0.09L577.666,180.826z"/>
		<path fill="#FFFFFF" d="M641.713,208.079l5.658,7.306L609.904,244.4l-6.063-7.827l14.877-35.98l-0.08-0.104l-26.718,20.69
			l-5.657-7.306l37.467-29.016l6.385,8.245l-14.574,35.077l0.081,0.104L641.713,208.079z"/>
		<path fill="#FFFFFF" d="M615.213,253.561l-4.998-9.153l49.69-7.877l5.472,10.022l-33.593,37.363l-5.155-9.443l7.119-7.345
			l-8.381-15.352L615.213,253.561z M633.815,250.173l5.788,10.602l13.637-14.138l-0.063-0.116L633.815,250.173z"/>
		<path fill="#FFFFFF" d="M676.488,268.9l6.966,19.729c0.879,2.489,1.319,4.795,1.322,6.917s-0.308,4.052-0.931,5.788
			c-0.624,1.736-1.508,3.298-2.652,4.682s-2.417,2.604-3.817,3.657c-1.401,1.056-2.864,1.968-4.388,2.739
			c-1.524,0.771-2.992,1.406-4.402,1.904c-1.576,0.557-3.298,1.035-5.162,1.438c-1.864,0.401-3.767,0.631-5.707,0.686
			c-1.939,0.056-3.86-0.096-5.759-0.451c-1.899-0.356-3.696-1.017-5.39-1.981c-1.694-0.966-3.223-2.257-4.588-3.875
			s-2.479-3.651-3.343-6.099l-6.834-19.355L676.488,268.9z M642.751,291.101l3.208,9.086c0.674,1.908,1.674,3.353,3,4.331
			c1.324,0.978,2.832,1.612,4.521,1.903c1.688,0.29,3.498,0.293,5.427,0.008s3.806-0.748,5.632-1.394
			c3.277-1.157,5.746-2.426,7.406-3.805c1.658-1.38,2.786-2.745,3.383-4.099c0.594-1.354,0.805-2.676,0.629-3.967
			c-0.176-1.292-0.439-2.435-0.791-3.431l-3.164-8.962L642.751,291.101z"/>
		<path fill="#FFFFFF" d="M646.073,328.556l-1.954-10.243l49.715,7.716l2.14,11.215l-43.419,25.283l-2.016-10.567l9.025-4.813
			l-3.277-17.18L646.073,328.556z M664.82,331.025l2.264,11.864l17.311-9.282l-0.024-0.13L664.82,331.025z"/>
	</g>
	<g>
		<path fill="#FFFFFF" d="M110.489,498.175l8.895,21.818l-7.945,3.239l-12.633-30.986l43.881-17.89l3.738,9.168L110.489,498.175z"/>
		<path fill="#FFFFFF" d="M118.187,535.829l-5.294-8.983l49.405-9.503l5.797,9.837l-32.349,38.445l-5.462-9.269l6.875-7.575
			l-8.88-15.068L118.187,535.829z M136.669,531.833l6.132,10.405l13.167-14.577l-0.067-0.113L136.669,531.833z"/>
		<path fill="#FFFFFF" d="M165.722,579.712c-0.489,0.442-0.979,1.05-1.468,1.819c-0.491,0.771-0.792,1.683-0.906,2.736
			c-0.115,1.053,0.068,2.254,0.547,3.601c0.479,1.349,1.442,2.82,2.89,4.418c0.797,0.881,1.653,1.693,2.566,2.439
			c0.913,0.746,1.85,1.321,2.812,1.727c0.96,0.406,1.935,0.563,2.92,0.472c0.986-0.092,1.951-0.565,2.897-1.423
			c0.685-0.621,1.114-1.292,1.291-2.016c0.175-0.724,0.159-1.511-0.047-2.362c-0.208-0.852-0.552-1.771-1.032-2.761
			c-0.481-0.989-1.021-2.044-1.62-3.164l-2.532-4.563c-0.975-1.729-1.872-3.44-2.691-5.132c-0.82-1.692-1.329-3.383-1.525-5.075
			c-0.197-1.691,0.011-3.394,0.625-5.108c0.614-1.714,1.882-3.442,3.807-5.187c0.652-0.591,1.436-1.167,2.351-1.729
			c0.916-0.563,1.935-1.026,3.059-1.392c1.124-0.365,2.356-0.577,3.699-0.636c1.342-0.058,2.756,0.159,4.243,0.653
			c1.486,0.493,3.044,1.279,4.673,2.355c1.628,1.077,3.3,2.562,5.014,4.452c2.422,2.673,4.041,5.245,4.854,7.715
			s1.121,4.743,0.926,6.821c-0.196,2.077-0.762,3.926-1.698,5.547c-0.937,1.62-1.942,2.918-3.019,3.893l-6.382-7.042
			c0.332-0.421,0.733-0.976,1.204-1.67c0.47-0.693,0.761-1.535,0.872-2.527c0.111-0.99-0.051-2.136-0.485-3.435
			c-0.435-1.298-1.376-2.747-2.823-4.344c-0.621-0.685-1.336-1.328-2.148-1.929s-1.647-1.046-2.504-1.338
			c-0.858-0.291-1.727-0.381-2.604-0.269c-0.878,0.112-1.708,0.523-2.491,1.232c-0.685,0.621-1.136,1.253-1.354,1.896
			c-0.219,0.643-0.289,1.271-0.209,1.882c0.078,0.611,0.252,1.196,0.521,1.754c0.268,0.559,0.516,1.062,0.743,1.509l5.653,10.465
			c0.799,1.472,1.489,2.955,2.07,4.447c0.58,1.492,0.896,2.987,0.948,4.485c0.05,1.498-0.233,2.986-0.851,4.467
			c-0.618,1.48-1.709,2.93-3.274,4.349c-1.761,1.595-3.513,2.693-5.255,3.292c-1.743,0.6-3.43,0.852-5.06,0.756
			c-1.631-0.096-3.172-0.437-4.622-1.022c-1.452-0.585-2.771-1.273-3.964-2.063c-1.191-0.791-2.227-1.59-3.106-2.396
			c-0.878-0.807-1.556-1.471-2.028-1.992c-2.896-3.195-4.829-6.149-5.802-8.859c-0.973-2.711-1.352-5.144-1.136-7.299
			c0.215-2.153,0.844-4.031,1.889-5.631c1.044-1.6,2.104-2.887,3.181-3.861L165.722,579.712z"/>
		<path fill="#FFFFFF" d="M194.056,597.475c2.317-2.879,4.642-5.102,6.977-6.669c2.333-1.566,4.603-2.649,6.808-3.248
			c2.204-0.599,4.309-0.811,6.315-0.636c2.006,0.174,3.861,0.553,5.568,1.135c1.705,0.582,3.212,1.271,4.519,2.069
			c1.307,0.797,2.372,1.527,3.194,2.189c0.822,0.662,1.763,1.546,2.822,2.651c1.058,1.106,2.054,2.431,2.988,3.973
			c0.933,1.542,1.699,3.273,2.299,5.196c0.599,1.922,0.842,4.023,0.729,6.305c-0.113,2.281-0.686,4.729-1.717,7.345
			c-1.032,2.615-2.706,5.362-5.023,8.241c-2.317,2.88-4.644,5.103-6.977,6.67c-2.334,1.566-4.604,2.649-6.807,3.247
			c-2.205,0.599-4.31,0.811-6.315,0.637c-2.006-0.175-3.863-0.553-5.568-1.135c-1.706-0.582-3.212-1.271-4.519-2.069
			c-1.307-0.798-2.371-1.527-3.194-2.189s-1.763-1.546-2.822-2.652c-1.059-1.105-2.055-2.43-2.988-3.972
			c-0.934-1.542-1.7-3.274-2.299-5.196c-0.6-1.923-0.842-4.024-0.729-6.305c0.113-2.282,0.685-4.729,1.717-7.345
			C190.063,603.102,191.738,600.355,194.056,597.475z M201.768,603.682c-2.069,2.571-3.454,4.959-4.154,7.162
			c-0.701,2.204-0.941,4.186-0.718,5.945c0.221,1.76,0.772,3.305,1.651,4.633c0.879,1.329,1.833,2.407,2.861,3.234
			c1.028,0.828,2.285,1.529,3.772,2.104c1.486,0.575,3.111,0.782,4.878,0.623c1.766-0.16,3.651-0.817,5.654-1.974
			c2.002-1.155,4.039-3.019,6.108-5.589c2.069-2.571,3.453-4.959,4.154-7.162c0.7-2.204,0.939-4.186,0.718-5.945
			c-0.223-1.76-0.772-3.304-1.651-4.633c-0.879-1.329-1.833-2.407-2.861-3.235c-1.028-0.827-2.286-1.528-3.771-2.103
			c-1.486-0.574-3.113-0.782-4.879-0.623c-1.767,0.16-3.652,0.817-5.654,1.974C205.872,599.249,203.837,601.112,201.768,603.682z"/>
		<path fill="#FFFFFF" d="M229.184,652.978l-8.357-5.308l25.407-40.001l8.357,5.308L229.184,652.978z"/>
		<path fill="#FFFFFF" d="M257.48,615.446l21.464,10.644c2.838,1.407,4.899,2.994,6.185,4.761c1.284,1.768,2.092,3.531,2.423,5.291
			c0.33,1.76,0.326,3.402-0.013,4.929c-0.34,1.526-0.734,2.743-1.183,3.649c-1.173,2.365-2.775,4.186-4.808,5.462
			c-2.032,1.275-4.289,1.74-6.769,1.395c0.671,0.824,1.239,1.609,1.705,2.355c0.465,0.746,0.733,1.616,0.806,2.609
			c0.072,0.993-0.077,2.161-0.446,3.499c-0.37,1.34-1.043,2.995-2.02,4.966c-0.763,1.537-1.389,2.823-1.876,3.858
			c-0.489,1.035-0.825,1.887-1.01,2.557c-0.185,0.67-0.233,1.235-0.142,1.697c0.089,0.462,0.332,0.89,0.728,1.281l-0.557,1.124
			l-9.815-4.867c0.192-1.182,0.518-2.433,0.976-3.752c0.458-1.32,1.234-3.083,2.329-5.291c0.723-1.458,1.284-2.716,1.685-3.77
			c0.4-1.054,0.534-2.019,0.404-2.894c-0.131-0.875-0.586-1.69-1.366-2.445c-0.78-0.755-1.998-1.543-3.653-2.364l-9.165-4.545
			l-8.239,16.615l-8.692-4.31L257.48,615.446z M267.314,643.601c2.325,1.153,4.265,1.575,5.819,1.265
			c1.553-0.31,2.858-1.529,3.914-3.658c0.273-0.551,0.492-1.192,0.658-1.92c0.165-0.729,0.156-1.481-0.022-2.258
			c-0.18-0.777-0.582-1.553-1.203-2.328c-0.623-0.775-1.584-1.485-2.885-2.131l-11.057-5.482l-5.63,11.353L267.314,643.601z"/>
		<path fill="#FFFFFF" d="M325.362,651.976l-23.964-7.619l-3.02,9.498l22.014,6.999l-2.54,7.988l-22.014-7l-3.72,11.699
			l25.033,7.959l-2.54,7.988l-34.279-10.899l14.359-45.16l33.209,10.56L325.362,651.976z M323.977,640.248l-16.542-5.628
			l0.964-0.797l17.587,1.635L323.977,640.248z"/>
		<path fill="#FFFFFF" d="M363.875,658.509l-24.817-4.052l-1.606,9.836l22.798,3.723l-1.351,8.272l-22.798-3.723l-1.978,12.116
			l25.925,4.232l-1.351,8.272l-35.5-5.796l7.636-46.77l34.393,5.615L363.875,658.509z"/>
		<path fill="#FFFFFF" d="M381.951,651.324l20.905-0.845c2.638-0.106,4.971,0.152,7,0.774c2.028,0.623,3.78,1.488,5.257,2.596
			c1.476,1.107,2.706,2.411,3.691,3.913c0.986,1.502,1.776,3.077,2.371,4.726c0.595,1.65,1.036,3.316,1.325,5
			c0.287,1.684,0.462,3.273,0.522,4.768c0.067,1.672,0.018,3.457-0.147,5.356c-0.165,1.9-0.507,3.785-1.026,5.656
			c-0.519,1.87-1.229,3.66-2.128,5.37c-0.9,1.71-2.061,3.232-3.481,4.566c-1.422,1.335-3.106,2.415-5.055,3.242
			c-1.948,0.828-4.22,1.293-6.813,1.398l-20.51,0.828L381.951,651.324z M393.227,690.104l9.628-0.389
			c2.021-0.081,3.696-0.611,5.021-1.59s2.376-2.231,3.151-3.76c0.774-1.528,1.311-3.257,1.607-5.185
			c0.296-1.928,0.405-3.857,0.327-5.793c-0.141-3.473-0.625-6.205-1.454-8.198c-0.829-1.991-1.803-3.471-2.92-4.439
			c-1.119-0.967-2.32-1.558-3.605-1.77c-1.287-0.213-2.456-0.298-3.512-0.255l-9.496,0.384L393.227,690.104z"/>
		<path fill="#FFFFFF" d="M466.416,672.149c0.614,3.063,0.698,5.783,0.256,8.161c-0.443,2.377-1.354,4.444-2.729,6.201
			c-1.376,1.757-3.172,3.205-5.389,4.345c-2.218,1.14-4.793,2.004-7.727,2.592c-1.079,0.217-2.271,0.376-3.572,0.48
			c-1.304,0.104-2.656,0.072-4.058-0.095c-1.403-0.167-2.813-0.48-4.227-0.937c-1.416-0.457-2.758-1.164-4.026-2.121
			c-1.537-1.173-2.763-2.644-3.678-4.412c-0.917-1.769-1.65-3.81-2.203-6.122l-6.175-30.803l9.9-1.985l6.045,30.156
			c0.329,1.641,0.825,2.999,1.491,4.077c0.664,1.078,1.45,1.92,2.356,2.522c0.905,0.604,1.903,0.988,2.99,1.151
			s2.191,0.133,3.313-0.093c3.365-0.674,5.616-1.922,6.755-3.743c1.139-1.82,1.422-4.155,0.852-7.003l-6.136-30.609l9.901-1.984
			L466.416,672.149z"/>
		<path fill="#FFFFFF" d="M495.887,656.916l8.479,19.487l-9.078,3.95l-18.906-43.454l9.078-3.949l7.162,16.461l16.945-7.372
			l-7.162-16.462l9.078-3.949l18.906,43.453l-9.078,3.949l-8.479-19.487L495.887,656.916z"/>
		<path fill="#FFFFFF" d="M525.473,641.253c-2.012-3.102-3.396-6.005-4.155-8.712c-0.76-2.706-1.079-5.2-0.959-7.481
			c0.12-2.28,0.576-4.346,1.369-6.197c0.792-1.852,1.731-3.495,2.817-4.935c1.086-1.438,2.212-2.654,3.378-3.646
			s2.192-1.775,3.078-2.35c0.886-0.575,2.02-1.192,3.4-1.853c1.382-0.659,2.95-1.191,4.707-1.597
			c1.757-0.404,3.641-0.592,5.654-0.561c2.014,0.032,4.086,0.458,6.218,1.278c2.131,0.82,4.278,2.129,6.44,3.926
			c2.161,1.797,4.248,4.245,6.259,7.347c2.012,3.101,3.396,6.006,4.155,8.711c0.76,2.708,1.078,5.201,0.958,7.481
			c-0.12,2.281-0.576,4.347-1.368,6.198c-0.793,1.852-1.732,3.496-2.817,4.935c-1.087,1.438-2.213,2.653-3.378,3.646
			c-1.166,0.992-2.192,1.775-3.078,2.351c-0.886,0.574-2.02,1.191-3.401,1.852c-1.381,0.66-2.95,1.192-4.706,1.598
			c-1.757,0.405-3.642,0.592-5.655,0.56c-2.014-0.031-4.086-0.457-6.217-1.277c-2.132-0.82-4.278-2.128-6.44-3.926
			C529.57,646.804,527.483,644.353,525.473,641.253z M533.778,635.865c1.796,2.77,3.631,4.831,5.505,6.185
			c1.875,1.354,3.683,2.201,5.424,2.54c1.74,0.34,3.38,0.299,4.917-0.121s2.858-0.989,3.967-1.707
			c1.107-0.719,2.166-1.693,3.176-2.926c1.011-1.232,1.716-2.712,2.116-4.44c0.4-1.727,0.364-3.724-0.107-5.987
			c-0.473-2.263-1.605-4.78-3.401-7.549s-3.631-4.829-5.506-6.184c-1.874-1.354-3.682-2.2-5.423-2.54
			c-1.741-0.339-3.38-0.299-4.917,0.121c-1.536,0.42-2.859,0.988-3.967,1.707c-1.107,0.718-2.166,1.693-3.176,2.926
			c-1.011,1.232-1.716,2.713-2.116,4.439c-0.4,1.729-0.364,3.725,0.107,5.988S531.982,633.097,533.778,635.865z"/>
		<path fill="#FFFFFF" d="M584.513,586.554c-0.637-0.371-1.396-0.796-2.276-1.273c-0.881-0.477-1.889-0.764-3.021-0.863
			c-1.132-0.099-2.37,0.062-3.713,0.482c-1.344,0.421-2.764,1.313-4.259,2.676c-0.878,0.801-1.666,1.831-2.362,3.091
			c-0.696,1.261-1.068,2.747-1.116,4.457c-0.048,1.711,0.369,3.623,1.253,5.734c0.884,2.112,2.452,4.404,4.704,6.875
			c1.423,1.561,2.957,2.917,4.601,4.067c1.645,1.15,3.32,1.961,5.027,2.428c1.707,0.469,3.401,0.531,5.083,0.188
			c1.683-0.342,3.304-1.226,4.865-2.648c2.048-1.867,3.228-3.97,3.538-6.307s-0.285-4.786-1.786-7.348l7.316-6.67
			c1.392,2.246,2.398,4.527,3.024,6.845c0.624,2.318,0.821,4.624,0.591,6.918c-0.23,2.295-0.919,4.544-2.064,6.749
			s-2.808,4.301-4.985,6.286c-2.342,2.135-4.843,3.701-7.506,4.699c-2.662,0.998-5.404,1.37-8.228,1.114
			c-2.821-0.254-5.677-1.165-8.563-2.731s-5.708-3.861-8.464-6.886c-2.786-3.056-4.817-6.116-6.093-9.182
			c-1.275-3.064-1.895-6.028-1.855-8.892s0.687-5.582,1.942-8.156s3.006-4.884,5.249-6.929c2.634-2.401,5.249-4.04,7.843-4.917
			c2.595-0.876,5.058-1.261,7.388-1.153c2.331,0.107,4.457,0.612,6.378,1.51c1.921,0.898,3.523,1.954,4.806,3.165L584.513,586.554z"
			/>
		<path fill="#FFFFFF" d="M625.66,588.76l-6.185,7.73l-37.004-29.604l6.185-7.73l15.049,12.039l-3.751-26.16l7.998-9.998
			l3.071,27.222l34.634,1.505l-7.958,9.947l-25.387-1.547l0.824,6.576L625.66,588.76z"/>
		<path fill="#FFFFFF" d="M632.214,508.91l-12.574,21.776l8.631,4.983l11.551-20.005l7.259,4.191l-11.551,20.005l10.631,6.138
			l13.135-22.748l7.259,4.191l-17.986,31.15l-41.038-23.695l17.426-30.179L632.214,508.91z"/>
		<path fill="#FFFFFF" d="M678.451,498.834l-3.654,9.201l-16.623-6.603l-33.461,4.32l4.313-10.856l22.769-1.538l-15.678-16.312
			l4.142-10.428l21.693,25.661L678.451,498.834z"/>
	</g>
	<circle fill="#FFFFFF" cx="103.257" cy="417.234" r="7.253"/>
	<circle fill="#FFFFFF" cx="676.257" cy="417.234" r="7.253"/>
</g>
</svg>
